<?xml version="1.0" encoding="UTF-8"?>
<svg version="1.1" xmlns="http://www.w3.org/2000/svg" width="500" height="500">
<path d="M0 0 C1.32451172 0.63035156 1.32451172 0.63035156 2.67578125 1.2734375 C16.68652944 8.28850091 26.71343649 20.94849396 32 35.5625 C37.36386396 51.97070886 36.17567446 68.41093805 28.875 84.0625 C19.87198812 101.21560684 6.60880751 110.46886659 -11.10546875 117.17578125 C-26.45804339 121.64390987 -43.42954548 119.69390942 -57.51879883 112.31445312 C-72.81737509 103.76873964 -83.84652198 91.30983568 -88.77099609 74.40429688 C-93.24983996 57.6197386 -91.94333197 39.69581053 -83.46875 24.296875 C-73.20965008 8.25338895 -59.25705652 -1.58553986 -40.82641602 -5.91918945 C-26.82727487 -8.87039644 -12.66916552 -6.59245073 0 0 Z " fill="#19506C" transform="translate(367,111)"/>
<path d="M0 0 C-0.14363527 1.37523135 -0.29003517 2.75017402 -0.4375 4.125 C-0.55931641 5.27355469 -0.55931641 5.27355469 -0.68359375 6.4453125 C-0.90387463 8.22387663 -1.1932889 9.99466188 -1.53515625 11.75390625 C-2.11523721 15.80472374 -2.0696285 19.7287882 -2 23.8125 C-1.95452759 26.54766562 -1.95256464 29.26357241 -2 32 C-3.64379126 33.64379126 -5.75326242 33.43263032 -7.96435547 33.74658203 C-22.7224737 35.96871433 -34.585862 42.27786531 -45 53 C-45.83015625 53.77859375 -46.6603125 54.5571875 -47.515625 55.359375 C-58.59624221 67.13688637 -63.4392023 83.87017896 -63.203125 99.70703125 C-62.26446691 114.92412297 -56.2053333 130.39581119 -45 141 C-44.03707031 141.99193359 -44.03707031 141.99193359 -43.0546875 143.00390625 C-31.64842704 154.09449529 -17.15517096 158.62245797 -1.5625 159.375 C17.79425833 158.45149054 32.57154841 152.06885464 46 138 C55.85591348 127.01088013 60.11779702 114.41985261 62 100 C62.18701171 98.67813089 62.3757475 97.35650426 62.56640625 96.03515625 C62.70949219 95.03355469 62.85257813 94.03195313 63 93 C63.61407715 92.9498877 64.2281543 92.89977539 64.86083984 92.84814453 C67.69942277 92.61306189 70.53717666 92.36907466 73.375 92.125 C74.34050781 92.04636719 75.30601562 91.96773438 76.30078125 91.88671875 C82.64566025 91.3331387 88.7844722 90.39051747 95 89 C95.58523437 115.8557551 90.09762249 139.92274947 71.1574707 159.85351562 C52.0151681 179.37873087 28.06998777 191.79595517 0.3125 192.3125 C-25.52755862 192.33824851 -49.09584468 182.31583255 -68 165 C-69.22958603 162.54082794 -69.15096172 160.87689846 -69.18945312 158.12646484 C-69.20617065 157.11135834 -69.22288818 156.09625183 -69.2401123 155.05038452 C-69.25368774 153.948367 -69.26726318 152.84634949 -69.28125 151.7109375 C-69.29965942 150.57854645 -69.31806885 149.4461554 -69.33703613 148.27944946 C-69.39592095 144.64468703 -69.44862875 141.00987591 -69.5 137.375 C-69.56790849 132.61188566 -69.64170827 127.84891179 -69.71875 123.0859375 C-69.73911316 121.4511293 -69.73911316 121.4511293 -69.7598877 119.78329468 C-69.85172634 114.10285332 -70.19779858 108.62339205 -71 103 C-71.08494177 101.00137022 -71.13043594 99.00042659 -71.125 97 C-71.12757813 96.05125 -71.13015625 95.1025 -71.1328125 94.125 C-71 91 -71 91 -70.48730469 87.56982422 C-69.77171056 81.96934892 -69.97986864 76.39189698 -70.0703125 70.7578125 C-70.08121089 68.36850167 -70.08892501 65.97917457 -70.09375 63.58984375 C-70.10160617 59.85374472 -70.12507035 56.12159055 -70.20214844 52.38623047 C-70.62478532 30.43516529 -70.62478532 30.43516529 -66.65136719 25.20458984 C-63.87620487 22.65440292 -61.2838567 20.82642415 -58 19 C-56.32774406 17.79941378 -54.66016826 16.59224631 -53 15.375 C-41.43891521 8.38534702 -28.32494185 3.21129221 -15 1 C-13.84951172 0.80664062 -13.84951172 0.80664062 -12.67578125 0.609375 C-8.42772432 -0.00558181 -4.2782571 -0.08913036 0 0 Z " fill="#1B5270" transform="translate(271,144)"/>
<path d="M0 0 C9.57 0 19.14 0 29 0 C29.06968007 24.540604 29.12310267 49.08118388 29.15543652 73.62186718 C29.17085394 85.01853508 29.19184456 96.41514007 29.22631836 107.81176758 C29.25637859 117.75412791 29.27561216 127.69644265 29.28226548 137.63884717 C29.28614979 142.89503811 29.29516944 148.15109871 29.31719017 153.40724754 C29.33781908 158.37223371 29.34378152 163.33703803 29.33932304 168.30206299 C29.34013661 170.10737922 29.34594285 171.91270267 29.35761642 173.71798134 C29.52104574 200.33713322 25.95107576 225.25498249 8 246 C-3.26609806 255.47878482 -18.55609677 261.99106559 -33.48828125 261.2734375 C-46.02705964 259.90840719 -60.66877575 257.33122425 -70 248 C-69.6660387 243.15400833 -67.90755086 239.00390655 -65.9375 234.625 C-65.65583984 233.98433594 -65.37417969 233.34367188 -65.08398438 232.68359375 C-64.39540579 231.11970341 -63.69855289 229.55946059 -63 228 C-59.09290775 228 -57.19084942 229.43433034 -53.8125 231.375 C-43.55295656 237.04931998 -33.31590955 238.88213648 -21.75 235.875 C-13.42466542 232.97981153 -8.66254065 228.26675876 -4.2265625 220.7578125 C-1.33342167 214.25285255 -0.70443522 208.07812904 -0.7215271 201.06555176 C-0.7157347 200.20117036 -0.7099423 199.33678897 -0.70397437 198.4462142 C-0.68705847 195.56892197 -0.68410514 192.69179095 -0.68115234 189.81445312 C-0.67184836 187.74432994 -0.66167899 185.67421049 -0.65071106 183.60409546 C-0.62345005 177.99731791 -0.60827316 172.39056543 -0.59528303 166.78373909 C-0.57963547 160.9193955 -0.55285041 155.05510298 -0.5272522 149.1907959 C-0.48049323 138.0917174 -0.44373514 126.99262927 -0.41057932 115.89350271 C-0.3723376 103.2550738 -0.32293279 90.61669621 -0.27259517 77.97831059 C-0.16931816 51.98557773 -0.08043992 25.99281269 0 0 Z " fill="#1D5472" transform="translate(167,112)"/>
<path d="M0 0 C7.18614691 5.46087155 13.53215918 15.01821215 15 24 C16.02879061 35.27260571 14.47823608 44.71758248 7.828125 54.046875 C0.88310932 62.2304922 -8.08226681 68.75169294 -19 70 C-31.71613316 70.97272229 -42.02833152 68.14104875 -52 60 C-60.58069003 51.00868288 -63.03059037 41.60779716 -63.4375 29.4375 C-63.14992987 18.59831804 -60.19112545 11.12071958 -52.62890625 3.296875 C-36.88500951 -10.45856524 -17.28213438 -11.75831199 0 0 Z " fill="#BFAB79" transform="translate(363,136)"/>
<path d="M0 0 C-0.14363527 1.37523135 -0.29003517 2.75017402 -0.4375 4.125 C-0.55931641 5.27355469 -0.55931641 5.27355469 -0.68359375 6.4453125 C-0.90387463 8.22387663 -1.1932889 9.99466188 -1.53515625 11.75390625 C-2.11523721 15.80472374 -2.0696285 19.7287882 -2 23.8125 C-1.95452759 26.54766562 -1.95256464 29.26357241 -2 32 C-3.64379126 33.64379126 -5.75326242 33.43263032 -7.96435547 33.74658203 C-22.7224737 35.96871433 -34.585862 42.27786531 -45 53 C-45.83015625 53.77859375 -46.6603125 54.5571875 -47.515625 55.359375 C-58.59624221 67.13688637 -63.4392023 83.87017896 -63.203125 99.70703125 C-62.26446691 114.92412297 -56.2053333 130.39581119 -45 141 C-44.03707031 141.99193359 -44.03707031 141.99193359 -43.0546875 143.00390625 C-31.64842704 154.09449529 -17.15517096 158.62245797 -1.5625 159.375 C17.79425833 158.45149054 32.57154841 152.06885464 46 138 C55.85591348 127.01088013 60.11779702 114.41985261 62 100 C62.18701171 98.67813089 62.3757475 97.35650426 62.56640625 96.03515625 C62.70949219 95.03355469 62.85257813 94.03195313 63 93 C64.98 93 66.96 93 69 93 C69.58928973 113.88704722 63.11994368 130.98272037 48.80419922 146.30639648 C35.38897921 160.07227418 16.96184074 166.64815642 -2.0625 167.375 C-21.57332521 166.56069177 -38.3918584 159.04432021 -51.87109375 145.0625 C-59.14813829 137.10022781 -62.10464973 130.4900363 -67 120 C-67.33 134.19 -67.66 148.38 -68 163 C-68.33 163 -68.66 163 -69 163 C-69.01030746 162.36630493 -69.02061493 161.73260986 -69.03123474 161.07971191 C-69.13974784 154.46059786 -69.2543069 147.84160769 -69.37231445 141.22265625 C-69.41552022 138.7552348 -69.45720491 136.28778622 -69.49731445 133.8203125 C-69.55536615 130.26554196 -69.6189588 126.7109062 -69.68359375 123.15625 C-69.70030624 122.06010376 -69.71701874 120.96395752 -69.73423767 119.83459473 C-69.84338781 114.14060052 -70.19837082 108.63744417 -71 103 C-71.08494177 101.00137022 -71.13043594 99.00042659 -71.125 97 C-71.12757813 96.05125 -71.13015625 95.1025 -71.1328125 94.125 C-71 91 -71 91 -70.48730469 87.56982422 C-69.77171056 81.96934892 -69.97986864 76.39189698 -70.0703125 70.7578125 C-70.08121089 68.36850167 -70.08892501 65.97917457 -70.09375 63.58984375 C-70.10160617 59.85374472 -70.12507035 56.12159055 -70.20214844 52.38623047 C-70.62478532 30.43516529 -70.62478532 30.43516529 -66.65136719 25.20458984 C-63.87620487 22.65440292 -61.2838567 20.82642415 -58 19 C-56.32774406 17.79941378 -54.66016826 16.59224631 -53 15.375 C-41.43891521 8.38534702 -28.32494185 3.21129221 -15 1 C-13.84951172 0.80664062 -13.84951172 0.80664062 -12.67578125 0.609375 C-8.42772432 -0.00558181 -4.2782571 -0.08913036 0 0 Z " fill="#C2B38C" transform="translate(271,144)"/>
<path d="M0 0 C1.32451172 0.63035156 1.32451172 0.63035156 2.67578125 1.2734375 C16.68652944 8.28850091 26.71343649 20.94849396 32 35.5625 C37.36386396 51.97070886 36.17567446 68.41093805 28.875 84.0625 C19.87198812 101.21560684 6.60880751 110.46886659 -11.10546875 117.17578125 C-26.45804339 121.64390987 -43.42954548 119.69390942 -57.51879883 112.31445312 C-72.81737509 103.76873964 -83.84652198 91.30983568 -88.77099609 74.40429688 C-93.24983996 57.6197386 -91.94333197 39.69581053 -83.46875 24.296875 C-73.20965008 8.25338895 -59.25705652 -1.58553986 -40.82641602 -5.91918945 C-26.82727487 -8.87039644 -12.66916552 -6.59245073 0 0 Z M-73 21.625 C-83.74832167 35.23278083 -85.27337431 50.23921063 -84 67 C-83.20198526 71.35734184 -81.96479037 75.0397194 -80 79 C-79.5875 79.84175781 -79.175 80.68351562 -78.75 81.55078125 C-70.92189766 95.85041139 -59.27980165 105.4238003 -43.82421875 110.2734375 C-29.90859685 113.85339002 -13.92821451 112.47940741 -1.0625 105.75 C0.31665942 104.87138493 1.67071959 103.95239631 3 103 C4.22589844 102.15308594 4.22589844 102.15308594 5.4765625 101.2890625 C16.56609458 93.08079857 24.40683527 81.29640937 27.3125 67.75 C29.70891633 51.44040927 27.08788759 37.79339383 18 24 C12.84122605 17.2741268 7.28451355 12.28421298 0 8 C-1.093125 7.278125 -2.18625 6.55625 -3.3125 5.8125 C-27.40182765 -7.18377383 -56.33593446 1.95085185 -73 21.625 Z " fill="#BDAE87" transform="translate(367,111)"/>
<path d="M0 0 C-0.94614383 8.67298515 -1.97544024 17.33600437 -3 26 C-3.95132813 26.07734375 -3.95132813 26.07734375 -4.921875 26.15625 C-24.57498891 28.54502628 -41.70398573 38.08213209 -54.671875 52.890625 C-59.90843498 59.88441988 -63.8990127 67.84440339 -67 76 C-67.33 76 -67.66 76 -68 76 C-68.25478371 69.32969327 -68.42916665 62.66065106 -68.54931641 55.98657227 C-68.59942652 53.71949383 -68.66753815 51.45273572 -68.75439453 49.18676758 C-69.49663202 29.31663343 -69.49663202 29.31663343 -65.90307617 24.58178711 C-63.36626741 22.27544767 -60.99687738 20.64475926 -58 19 C-56.3485276 17.82035492 -54.70192903 16.63382607 -53.0625 15.4375 C-41.49655898 8.39950185 -28.35344717 3.21602271 -15 1 C-13.84951172 0.80664062 -13.84951172 0.80664062 -12.67578125 0.609375 C-8.42772432 -0.00558181 -4.2782571 -0.08913036 0 0 Z " fill="#1A516E" transform="translate(271,144)"/>
<path d="M0 0 C3.87909417 1.47138055 5.01056241 3.45361125 7 7 C7.48984375 7.47953125 7.9796875 7.9590625 8.484375 8.453125 C12.80471927 12.86254853 13.27120045 18.81715729 13.5 24.6875 C13.17251832 36.47684061 8.95936829 45.2367907 0.75 53.6171875 C-8.3960789 61.542057 -18.08562485 64.51100534 -29.98828125 64.2421875 C-39.07810652 63.51122879 -46.99019637 59.81968416 -54 54 C-55.76420247 51.54395342 -56.29416379 49.99980387 -57 47 C-56.67 46.34 -56.34 45.68 -56 45 C-55.34 45 -54.68 45 -54 45 C-52.23537317 41.91190305 -52 40.76687864 -52 37 C-51.34 37 -50.68 37 -50 37 C-50.495 35.515 -50.495 35.515 -51 34 C-50.01 34 -49.02 34 -48 34 C-47.67 34.99 -47.34 35.98 -47 37 C-45.70896357 38.3743291 -44.3743291 39.70896357 -43 41 C-42.34 41.66 -41.68 42.32 -41 43 C-39.01276732 43.70381157 -37.01222047 44.3711811 -35 45 C-34.34 45.33 -33.68 45.66 -33 46 C-25.64904786 46.68985859 -18.91574762 46.80358707 -13 42 C-7.75978789 36.8766079 -2.8561057 31.75282837 -2.70703125 24.109375 C-3.10884563 21.21631147 -4.12788852 18.78444452 -5.2734375 16.11328125 C-6.64180876 12.13323365 -6.9364632 8.10882303 -6 4 C-3 1.375 -3 1.375 0 0 Z " fill="#BFAA78" transform="translate(365,142)"/>
<path d="M0 0 C3.98451193 0.97382661 6.51557703 3.42200353 9.09375 6.51171875 C12.30696057 12.10892426 13.00912033 17.28122345 11.66015625 23.515625 C9.47903865 30.43830259 5.0085444 35.68282815 -1.09375 39.51171875 C-7.86917398 41.28887914 -14.97757955 42.09307471 -21.28125 38.51171875 C-25.87249228 35.16653388 -29.37406756 30.57608364 -31.90625 25.51171875 C-32.05602039 23.26516288 -32.12775174 21.01308107 -32.15625 18.76171875 C-32.18203125 17.55 -32.2078125 16.33828125 -32.234375 15.08984375 C-31.88104348 11.23684765 -30.84019605 8.82996303 -28.90625 5.51171875 C-27.91625 5.51171875 -26.92625 5.51171875 -25.90625 5.51171875 C-25.24625 4.19171875 -24.58625 2.87171875 -23.90625 1.51171875 C-22.58625 1.51171875 -21.26625 1.51171875 -19.90625 1.51171875 C-19.57625 3.49171875 -19.24625 5.47171875 -18.90625 7.51171875 C-15.23916043 8.45468464 -12.55278273 8.62593708 -8.90625 7.51171875 C-8.57625 6.85171875 -8.24625 6.19171875 -7.90625 5.51171875 C-8.56625 5.18171875 -9.22625 4.85171875 -9.90625 4.51171875 C-7.10710429 0.77952447 -4.71005239 -0.25483492 0 0 Z " fill="#1A4F6B" transform="translate(348.90625,148.48828125)"/>
<path d="M0 0 C0.33 0 0.66 0 1 0 C1.01030746 0.62782883 1.02061493 1.25565765 1.03123474 1.9025116 C1.13945945 8.44007444 1.25404439 14.97750391 1.37231445 21.51489258 C1.41561209 23.9543173 1.45729083 26.39377132 1.49731445 28.83325195 C1.55514208 32.34074734 1.61880085 35.84809597 1.68359375 39.35546875 C1.70030624 40.44522507 1.71701874 41.53498138 1.73423767 42.65776062 C1.75418289 43.67844131 1.77412811 44.69912201 1.79467773 45.75073242 C1.81022202 46.64563889 1.8257663 47.54054535 1.84178162 48.46257019 C2.0032755 51.05253091 2.43263005 53.4705149 3 56 C3.66 56 4.32 56 5 56 C5 54.02 5 52.04 5 50 C6.485 49.505 6.485 49.505 8 49 C7.855625 49.79921875 7.71125 50.5984375 7.5625 51.421875 C4.47198358 69.70743047 6.51217845 84.36691155 15.2578125 100.69921875 C17 104 17 104 18 107 C17.01 107.495 17.01 107.495 16 108 C15.67 106.35 15.34 104.7 15 103 C12.525 103.495 12.525 103.495 10 104 C8.84917315 101.75243216 7.70423142 99.50218252 6.5625 97.25 C6.23701172 96.61578125 5.91152344 95.9815625 5.57617188 95.328125 C3.98922533 92.18695246 2.8591952 89.4367808 2 86 C1.67 101.84 1.34 117.68 1 134 C0.67 134 0.34 134 0 134 C-0.01030746 133.36630493 -0.02061493 132.73260986 -0.03123474 132.07971191 C-0.13974784 125.46059786 -0.2543069 118.84160769 -0.37231445 112.22265625 C-0.41552022 109.7552348 -0.45720491 107.28778622 -0.49731445 104.8203125 C-0.55536615 101.26554196 -0.6189588 97.7109062 -0.68359375 94.15625 C-0.70030624 93.06010376 -0.71701874 91.96395752 -0.73423767 90.83459473 C-0.84338781 85.14060052 -1.19837082 79.63744417 -2 74 C-2.08494177 72.00137022 -2.13043594 70.00042659 -2.125 68 C-2.12757813 67.05125 -2.13015625 66.1025 -2.1328125 65.125 C-2 62 -2 62 -1.51147461 58.59179688 C-0.78243447 52.87989756 -0.76791249 47.15730124 -0.68359375 41.40625 C-0.66281265 40.21898315 -0.64203156 39.03171631 -0.62062073 37.80847168 C-0.55556145 34.03903648 -0.4964441 30.26953529 -0.4375 26.5 C-0.39427325 23.93488918 -0.35065767 21.36978488 -0.30664062 18.8046875 C-0.19992509 12.53652683 -0.09807996 6.26830143 0 0 Z " fill="#C0BAA2" transform="translate(202,173)"/>
<path d="M0 0 C2.51625 -0.0825 5.0325 -0.165 7.625 -0.25 C8.79603271 -0.30462402 8.79603271 -0.30462402 9.99072266 -0.36035156 C15.11755106 -0.44104802 17.9165953 0.66685942 22 4 C25.38448332 7.83574777 25.51974499 11.63464029 25.34375 16.5625 C24.81780954 20.29189598 23.58116456 22.28646803 21 25 C14.03009428 29.54559069 9.13607565 28 0 28 C0 18.76 0 9.52 0 0 Z M6 5 C6 10.61 6 16.22 6 22 C11.40094878 23.1224933 11.40094878 23.1224933 16 21 C18.62186654 18.55895184 18.97851434 17.14771393 19.5 13.5625 C19.25511122 9.90906618 19.25511122 9.90906618 17 7.0625 C13.50804268 4.24462824 13.50804268 4.24462824 6 5 Z " fill="#35627B" transform="translate(271,361)"/>
<path d="M0 0 C6.93 0 13.86 0 21 0 C20.67 1.65 20.34 3.3 20 5 C15.38 5 10.76 5 6 5 C6 6.98 6 8.96 6 11 C6.66 10.67 7.32 10.34 8 10 C9.70702735 9.93003986 11.41668003 9.91559846 13.125 9.9375 C14.03507812 9.94652344 14.94515625 9.95554687 15.8828125 9.96484375 C16.93082031 9.98224609 16.93082031 9.98224609 18 10 C18.38218767 11.65614657 18.71395102 13.32457024 19 15 C18 16 18 16 15.27734375 16.09765625 C14.17519531 16.08605469 13.07304687 16.07445312 11.9375 16.0625 C10.28041016 16.04896484 10.28041016 16.04896484 8.58984375 16.03515625 C7.73519531 16.02355469 6.88054687 16.01195312 6 16 C6 18.31 6 20.62 6 23 C6.84691406 22.75636719 6.84691406 22.75636719 7.7109375 22.5078125 C10.08808621 21.98045869 12.19343118 21.86686766 14.625 21.875 C15.40101563 21.87242187 16.17703125 21.86984375 16.9765625 21.8671875 C19 22 19 22 21 23 C21 24.65 21 26.3 21 28 C14.07 28 7.14 28 0 28 C0 18.76 0 9.52 0 0 Z " fill="#3F6D88" transform="translate(313,361)"/>
<path d="M0 0 C1.98 0 3.96 0 6 0 C6.01981934 0.59538574 6.03963867 1.19077148 6.06005859 1.80419922 C6.15516126 4.49492153 6.26489842 7.18485148 6.375 9.875 C6.4059375 10.81214844 6.436875 11.74929688 6.46875 12.71484375 C6.50742188 13.61074219 6.54609375 14.50664062 6.5859375 15.4296875 C6.6173584 16.25710449 6.6487793 17.08452148 6.68115234 17.93701172 C6.82599137 20.21986085 6.82599137 20.21986085 9 22 C11.5 22.33333333 11.5 22.33333333 14 22 C16.43914492 19.56085508 16.28662523 18.78553569 16.4140625 15.4296875 C16.45273438 14.53378906 16.49140625 13.63789063 16.53125 12.71484375 C16.5621875 11.77769531 16.593125 10.84054687 16.625 9.875 C16.66367188 8.93011719 16.70234375 7.98523438 16.7421875 7.01171875 C16.83661346 4.67467625 16.92218394 2.33764499 17 0 C18.98 0 20.96 0 23 0 C23.08745946 3.3956697 23.14054444 6.79104773 23.1875 10.1875 C23.21263672 11.14720703 23.23777344 12.10691406 23.26367188 13.09570312 C23.35709154 22.09513128 23.35709154 22.09513128 20 26 C15.74693092 28.83537939 11.99377978 28.64360826 7 28 C1.38028169 25.14084507 1.38028169 25.14084507 0 21 C-0.08143855 19.37280518 -0.1075302 17.74248281 -0.09765625 16.11328125 C-0.09443359 15.17548828 -0.09121094 14.23769531 -0.08789062 13.27148438 C-0.07532227 11.80678711 -0.07532227 11.80678711 -0.0625 10.3125 C-0.05798828 9.32443359 -0.05347656 8.33636719 -0.04882812 7.31835938 C-0.03704303 4.87884526 -0.02059011 2.43945311 0 0 Z " fill="#3E6881" transform="translate(230,361)"/>
<path d="M0 0 C0.495 2.475 0.495 2.475 1 5 C-18.36701021 12.07376614 -36.72552281 13.26049022 -56 5 C-50.6892822 1.89697089 -44.78486841 2.55442106 -38.875 3.5 C-38.25625 3.665 -37.6375 3.83 -37 4 C-37 5.65 -37 7.3 -37 9 C-36.35675781 8.36191406 -35.71351563 7.72382813 -35.05078125 7.06640625 C-31.06815 4.36882375 -27.89545014 4.22907412 -23.1875 3.9375 C-15.27080292 3.39998746 -7.70908166 -0.57818112 0 0 Z " fill="#BAAB82" transform="translate(297,300)"/>
<path d="M0 0 C0.66 0.33 1.32 0.66 2 1 C0 4 0 4 -3.0625 5.4375 C-6.14072697 6.66952961 -6.14072697 6.66952961 -6.875 9.1875 C-6.91625 9.785625 -6.9575 10.38375 -7 11 C-8.32 11.33 -9.64 11.66 -11 12 C-11 13.65 -11 15.3 -11 17 C-11.598125 17.061875 -12.19625 17.12375 -12.8125 17.1875 C-15.93092447 18.34577195 -16.56824742 20.06831615 -18 23 C-18.165 23.70125 -18.33 24.4025 -18.5 25.125 C-19.13091098 27.49091616 -20.10592821 28.48474257 -22 30 C-22.66 30 -23.32 30 -24 30 C-24.66 34.29 -25.32 38.58 -26 43 C-27.485 43.495 -27.485 43.495 -29 44 C-29 45.98 -29 47.96 -29 50 C-30.485 50.495 -30.485 50.495 -32 51 C-34.45085294 43.03472794 -31.89515444 37.69732337 -28.24804688 30.7109375 C-24.76474177 24.28998165 -20.8124606 18.46419641 -15.875 13.0625 C-15.40215576 12.54397461 -14.92931152 12.02544922 -14.44213867 11.49121094 C-10.13280486 6.90050677 -5.36270841 3.30370756 0 0 Z " fill="#BCA97C" transform="translate(236,179)"/>
<path d="M0 0 C1.98 0 3.96 0 6 0 C7.26995035 3.80985105 7.18414789 7.40609619 7.1875 11.375 C7.19974609 12.13039063 7.21199219 12.88578125 7.22460938 13.6640625 C7.2379794 18.76249848 6.81036483 22.58968868 3.65625 26.7890625 C1.50287153 28.36346657 0.14839221 28.40148392 -2.5 28.375 C-3.2734375 28.38273437 -4.046875 28.39046875 -4.84375 28.3984375 C-7.45159728 27.91655268 -8.33871866 27.01270624 -10 25 C-9.01 23.515 -9.01 23.515 -8 22 C-4.375 21.8125 -4.375 21.8125 -1 22 C0.17700048 17.37540756 0.11408412 12.92133538 0.0625 8.1875 C0.05798828 7.39923828 0.05347656 6.61097656 0.04882812 5.79882812 C0.03711312 3.86585239 0.01917998 1.93291607 0 0 Z " fill="#1B5071" transform="translate(205,361)"/>
<path d="M0 0 C1.99770113 1.30125486 3.52750796 2.63084474 5.12890625 4.38671875 C4.79890625 5.04671875 4.46890625 5.70671875 4.12890625 6.38671875 C3.63390625 5.74734375 3.13890625 5.10796875 2.62890625 4.44921875 C-0.85915762 1.57156606 -3.40570416 1.68441139 -7.87109375 1.38671875 C-8.20109375 2.04671875 -8.53109375 2.70671875 -8.87109375 3.38671875 C-9.53109375 4.04671875 -10.19109375 4.70671875 -10.87109375 5.38671875 C-10.87109375 6.70671875 -10.87109375 8.02671875 -10.87109375 9.38671875 C-14.55692957 10.3345051 -17.19392581 10.40815429 -20.87109375 9.38671875 C-21.87109375 8.38671875 -21.87109375 8.38671875 -21.93359375 5.32421875 C-21.91296875 4.35484375 -21.89234375 3.38546875 -21.87109375 2.38671875 C-25.59723528 3.50526461 -25.59723528 3.50526461 -27.87109375 6.38671875 C-28.53109375 6.05671875 -29.19109375 5.72671875 -29.87109375 5.38671875 C-21.96271069 -5.39743997 -11.31065364 -6.04566238 0 0 Z " fill="#20536C" transform="translate(350.87109375,147.61328125)"/>
<path d="M0 0 C0.66 0 1.32 0 2 0 C2.0093457 0.60360352 2.01869141 1.20720703 2.02832031 1.82910156 C2.33913336 20.67152015 2.33913336 20.67152015 9.3125 37.9375 C11.24602989 41.44649869 10.97283023 42.29069247 10 46 C5.02828342 43.82284307 1.77468213 41.53344613 -0.7109375 36.61328125 C-3.36297295 29.54543384 -4.80173554 22.57194675 -4 15 C-3.67 15 -3.34 15 -3 15 C-3 16.65 -3 18.3 -3 20 C-2.34 19.67 -1.68 19.34 -1 19 C-0.67 12.73 -0.34 6.46 0 0 Z " fill="#B6A884" transform="translate(281,156)"/>
<path d="M0 0 C1.08539063 0.42152344 2.17078125 0.84304687 3.2890625 1.27734375 C4.73426204 1.83102409 6.17958091 2.38439305 7.625 2.9375 C8.33785156 3.21529297 9.05070312 3.49308594 9.78515625 3.77929688 C20.9998534 8.04911276 32.23688632 7.45737692 44 6 C42 8 42 8 39.5 8.9375 C36.69808253 9.8583474 36.69808253 9.8583474 35 13 C31.72912902 13.67899777 28.31481723 13.21736506 25 13 C24.28489258 12.95746094 23.56978516 12.91492188 22.83300781 12.87109375 C20.42695589 12.71554294 18.02714008 12.51950625 15.625 12.3125 C14.83996094 12.25940674 14.05492187 12.20631348 13.24609375 12.15161133 C7.53925848 11.58375175 7.53925848 11.58375175 4.6328125 8.4375 C4.09398437 7.633125 3.55515625 6.82875 3 6 C0.33071879 5.58129447 0.33071879 5.58129447 -2 6 C-1.34 4.02 -0.68 2.04 0 0 Z " fill="#B2AB8A" transform="translate(310,215)"/>
<path d="M0 0 C6.93 0 13.86 0 21 0 C20.67 1.65 20.34 3.3 20 5 C15.38 5 10.76 5 6 5 C6 6.98 6 8.96 6 11 C5.67 11 5.34 11 5 11 C4.67 8.03 4.34 5.06 4 2 C3.34 2 2.68 2 2 2 C1.67 10.25 1.34 18.5 1 27 C7.27 27 13.54 27 20 27 C20 26.01 20 25.02 20 24 C15.38 24 10.76 24 6 24 C9.68045492 22.15977254 10.78745984 21.7419098 14.625 21.8125 C15.40101563 21.81894531 16.17703125 21.82539063 16.9765625 21.83203125 C19 22 19 22 21 23 C21 24.65 21 26.3 21 28 C14.07 28 7.14 28 0 28 C0 18.76 0 9.52 0 0 Z " fill="#618396" transform="translate(313,361)"/>
<path d="M0 0 C3.96 0 7.92 0 12 0 C12.33 0.99 12.66 1.98 13 3 C10.03 3 7.06 3 4 3 C4.33 9.27 4.66 15.54 5 22 C6.65 22.33 8.3 22.66 10 23 C10.33 23.99 10.66 24.98 11 26 C7.37 26 3.74 26 0 26 C0 17.42 0 8.84 0 0 Z " fill="#1B4B65" transform="translate(272,362)"/>
<path d="M0 0 C1.8125 0.8203125 1.8125 0.8203125 4 2.125 C4.81339844 2.5890625 5.62679687 3.053125 6.46484375 3.53125 C8.06671197 4.45929692 9.66377467 5.39573395 11.25390625 6.34375 C20.94260817 11.7208976 32.96304318 13.84751501 44 13 C45.05832031 12.92265625 46.11664063 12.8453125 47.20703125 12.765625 C50.14068473 12.53339166 53.07034062 12.27759886 56 12 C53.06419434 13.95720377 52.10177164 14.30195175 48.76953125 14.6328125 C47.96708984 14.71660156 47.16464844 14.80039062 46.33789062 14.88671875 C45.50451172 14.96535156 44.67113281 15.04398437 43.8125 15.125 C42.96751953 15.21136719 42.12253906 15.29773438 41.25195312 15.38671875 C39.16871077 15.5985739 37.08443958 15.80026777 35 16 C35 16.99 35 17.98 35 19 C33.35 19 31.7 19 30 19 C29.67 17.68 29.34 16.36 29 15 C25.13276369 13.73417781 21.26848738 13.8881235 17.25 13.9375 C16.55261719 13.94201172 15.85523438 13.94652344 15.13671875 13.95117188 C13.42444197 13.9628998 11.71220967 13.98083347 10 14 C10.99 13.01 11.98 12.02 13 11 C9.20458337 8.78600697 5.24370579 7.99019802 1 7 C1.33 5.35 1.66 3.7 2 2 C0.68 1.67 -0.64 1.34 -2 1 C-1.34 0.67 -0.68 0.34 0 0 Z " fill="#CABD9D" transform="translate(230,290)"/>
<path d="M0 0 C1.85625 0.0309375 1.85625 0.0309375 3.75 0.0625 C4.08 2.0425 4.41 4.0225 4.75 6.0625 C-1.19 6.3925 -7.13 6.7225 -13.25 7.0625 C-13.25 7.7225 -13.25 8.3825 -13.25 9.0625 C-17.58333333 9.0625 -21.91666667 9.0625 -26.25 9.0625 C-23.44197652 6.25447652 -20.03651473 5.33175447 -16.375 4 C-15.65441406 3.73123047 -14.93382812 3.46246094 -14.19140625 3.18554688 C-9.41680751 1.42255047 -5.14320837 -0.08572014 0 0 Z " fill="#BEAC7E" transform="translate(264.25,169.9375)"/>
<path d="M0 0 C2.59875 -0.020625 5.1975 -0.04125 7.875 -0.0625 C8.69210449 -0.071604 9.50920898 -0.08070801 10.35107422 -0.09008789 C15.77777778 -0.11111111 15.77777778 -0.11111111 18 1 C18 1.99 18 2.98 18 4 C15.47524538 5.26237731 13.68799534 5.09856404 10.875 5.0625 C9.96492188 5.05347656 9.05484375 5.04445313 8.1171875 5.03515625 C7.41851562 5.02355469 6.71984375 5.01195312 6 5 C6.2475 6.1446875 6.2475 6.1446875 6.5 7.3125 C7.16562149 12.22145849 7.07920078 17.05435114 7 22 C9.31 22 11.62 22 14 22 C12 24 12 24 8.9375 24.1875 C6 24 6 24 5 23 C4.91348389 21.58429877 4.89295096 20.164405 4.90234375 18.74609375 C4.90556641 17.89208984 4.90878906 17.03808594 4.91210938 16.15820312 C4.92048828 15.26037109 4.92886719 14.36253906 4.9375 13.4375 C4.94201172 12.53580078 4.94652344 11.63410156 4.95117188 10.70507812 C4.96299775 8.46998686 4.9794778 6.23502563 5 4 C8.465 3.505 8.465 3.505 12 3 C12 2.67 12 2.34 12 2 C8.37 1.67 4.74 1.34 1 1 C1 9.58 1 18.16 1 27 C5.29 27 9.58 27 14 27 C14 27.33 14 27.66 14 28 C9.38 28 4.76 28 0 28 C0 18.76 0 9.52 0 0 Z " fill="#7F9BAA" transform="translate(271,361)"/>
<path d="M0 0 C1.65 0 3.3 0 5 0 C5 6.6 5 13.2 5 20 C4.34 20 3.68 20 3 20 C2.896875 20.639375 2.79375 21.27875 2.6875 21.9375 C2.460625 22.618125 2.23375 23.29875 2 24 C1.01 24.33 0.02 24.66 -1 25 C-0.67 16.75 -0.34 8.5 0 0 Z " fill="#3A6781" transform="translate(247,361)"/>
<path d="M0 0 C0 1.65 0 3.3 0 5 C6.93 5 13.86 5 21 5 C21 5.33 21 5.66 21 6 C7.3308839 8.37723758 -6.22871719 6.47340692 -19 1 C-13.34439238 -2.30454672 -6.18867042 -1.65031211 0 0 Z " fill="#ACA688" transform="translate(260,304)"/>
<path d="M0 0 C1.32 0 2.64 0 4 0 C4.495 0.99 4.495 0.99 5 2 C7.97 2 10.94 2 14 2 C4.10689494 8.59540337 -10.38373633 8.37901132 -21.75390625 6.3203125 C-24.53844835 5.62993016 -27.27122568 4.88330267 -30 4 C-26.47837372 2.8516436 -23.53816326 3.08001057 -19.875 3.4375 C-13.63096923 3.96869024 -13.63096923 3.96869024 -7.375 4.3125 C-6.59898437 4.34988281 -5.82296875 4.38726562 -5.0234375 4.42578125 C-2.21303002 3.83440207 -1.67211875 2.24276245 0 0 Z " fill="#C2B28D" transform="translate(348,223)"/>
<path d="M0 0 C0.66 0 1.32 0 2 0 C-1.55352109 8.43270809 -12.1083788 13.31724344 -20 17 C-20.66 17 -21.32 17 -22 17 C-22 15.02 -22 13.04 -22 11 C-21.278125 10.938125 -20.55625 10.87625 -19.8125 10.8125 C-16.15342375 9.75543353 -14.50788398 7.79449929 -12 5 C-11.67 5.99 -11.34 6.98 -11 8 C-10.01 8 -9.02 8 -8 8 C-7.773125 7.21625 -7.54625 6.4325 -7.3125 5.625 C-6 3 -6 3 -3.4375 1.75 C-2.633125 1.5025 -1.82875 1.255 -1 1 C-0.67 0.67 -0.34 0.34 0 0 Z " fill="#C2B085" transform="translate(384,208)"/>
<path d="M0 0 C0 0.33 0 0.66 0 1 C-4.62 1.33 -9.24 1.66 -14 2 C-14 2.66 -14 3.32 -14 4 C-14.99 4 -15.98 4 -17 4 C-17.66 4.66 -18.32 5.32 -19 6 C-21.6015625 6.1953125 -21.6015625 6.1953125 -24.625 6.125 C-26.12933594 6.09792969 -26.12933594 6.09792969 -27.6640625 6.0703125 C-28.43492187 6.04710938 -29.20578125 6.02390625 -30 6 C-30 6.66 -30 7.32 -30 8 C-31.32 8 -32.64 8 -34 8 C-33.67 9.32 -33.34 10.64 -33 12 C-34.98 12.99 -34.98 12.99 -37 14 C-37 13.34 -37 12.68 -37 12 C-37.99 12.66 -38.98 13.32 -40 14 C-42.1875 13.625 -42.1875 13.625 -44 13 C-30.75031273 3.03705686 -16.32335044 -0.50484589 0 0 Z " fill="#D2C6A8" transform="translate(344,104)"/>
<path d="M0 0 C0.33 0 0.66 0 1 0 C0.85962479 1.81293089 0.71255111 3.6253443 0.5625 5.4375 C0.48128906 6.44683594 0.40007812 7.45617187 0.31640625 8.49609375 C0 11 0 11 -1 12 C-1.28254373 15.8674244 -1.23190664 19.74849799 -1.25 23.625 C-1.270625 24.70652344 -1.29125 25.78804687 -1.3125 26.90234375 C-1.34295391 33.13778125 -0.85009006 37.45609114 2 43 C2.1875 45.9375 2.1875 45.9375 2 48 C-3.85826338 40.80700727 -4.53216064 32.10671719 -4.4375 23.125 C-4.43427734 22.16770996 -4.43105469 21.21041992 -4.42773438 20.22412109 C-4.28292589 12.86011032 -3.17408263 6.71658556 0 0 Z " fill="#27515B" transform="translate(287,144)"/>
<path d="M0 0 C2.87612044 1.43806022 2.92802918 3.18341214 3.9375 6.1875 C5.37467801 10.32140528 6.92112933 14.15408927 9 18 C10.65 18 12.3 18 14 18 C16.24736663 22.19508438 17 25.20832961 17 30 C17.66 30 18.32 30 19 30 C19.66 31.65 20.32 33.3 21 35 C10.97805088 27.51436138 2.73986966 14.96861385 0.34375 2.6171875 C0.2303125 1.75351562 0.116875 0.88984375 0 0 Z " fill="#B1A685" transform="translate(203,258)"/>
<path d="M0 0 C0.99 0.33 1.98 0.66 3 1 C2.12373953 6.42334184 -1.76177767 8.89152463 -6 12 C-9.59278245 14.15472648 -13.25628466 16.1212605 -17 18 C-18 16 -18 16 -17.875 14 C-17 12 -17 12 -14.5 10.875 C-13.675 10.58625 -12.85 10.2975 -12 10 C-11.67 9.34 -11.34 8.68 -11 8 C-10.34 8.33 -9.68 8.66 -9 9 C-8.67 9 -8.34 9 -8 9 C-7.01 9 -6.02 9 -5 9 C-5.99 8.34 -6.98 7.68 -8 7 C-7.34 6.34 -6.68 5.68 -6 5 C-3.375 5.375 -3.375 5.375 -1 6 C-1.020625 5.195625 -1.04125 4.39125 -1.0625 3.5625 C-1 1 -1 1 0 0 Z " fill="#B3A981" transform="translate(317,286)"/>
<path d="M0 0 C0.66 0.33 1.32 0.66 2 1 C2.85707239 23.54576544 2.85707239 23.54576544 -2 33 C-3.485 33.495 -3.485 33.495 -5 34 C-6.52729092 35.76064281 -6.52729092 35.76064281 -7.9375 37.875 C-10.00234267 40.85938594 -11.89650427 43.06866606 -15 45 C-15.99 45 -16.98 45 -18 45 C-18 45.66 -18 46.32 -18 47 C-19.65 47 -21.3 47 -23 47 C-21.05990653 45.5287983 -19.11877586 44.08081656 -17.10546875 42.7109375 C-8.39511957 36.6438511 -2.04757482 28.57293178 0 18 C0.42344945 12.00134992 0.23774349 6.00302313 0 0 Z " fill="#2D525B" transform="translate(377,156)"/>
<path d="M0 0 C1.890625 1.46484375 1.890625 1.46484375 3.890625 4.46484375 C2.240625 4.46484375 0.590625 4.46484375 -1.109375 4.46484375 C-1.604375 2.48484375 -1.604375 2.48484375 -2.109375 0.46484375 C-2.66625 0.36171875 -3.223125 0.25859375 -3.796875 0.15234375 C-6.109375 -0.53515625 -6.109375 -0.53515625 -8.171875 -1.97265625 C-11.95129942 -3.98298839 -15.57653559 -4.46464329 -19.78125 -5.10546875 C-22.109375 -5.53515625 -22.109375 -5.53515625 -23.109375 -6.53515625 C-25.62073604 -6.63490657 -28.09840915 -6.67397808 -30.609375 -6.66015625 C-31.31191406 -6.66402344 -32.01445312 -6.66789062 -32.73828125 -6.671875 C-36.21366308 -6.97906556 -36.21366308 -6.97906556 -39.109375 -5.53515625 C-40.79546466 -5.46310114 -42.48438159 -5.45129557 -44.171875 -5.47265625 C-45.09097656 -5.48167969 -46.01007813 -5.49070312 -46.95703125 -5.5 C-47.66730469 -5.51160156 -48.37757813 -5.52320312 -49.109375 -5.53515625 C-38.43267486 -16.21185639 -10.44679506 -6.5205989 0 0 Z " fill="#2B515D" transform="translate(370.109375,120.53515625)"/>
<path d="M0 0 C0.90105469 0.19464844 1.80210937 0.38929688 2.73046875 0.58984375 C3.41753906 0.74582031 4.10460937 0.90179688 4.8125 1.0625 C5.1425 2.0525 5.4725 3.0425 5.8125 4.0625 C4.8225 5.0525 3.8325 6.0425 2.8125 7.0625 C3.555 6.815 4.2975 6.5675 5.0625 6.3125 C7.8125 6.0625 7.8125 6.0625 10.125 7.875 C11.8125 10.0625 11.8125 10.0625 11.8125 12.0625 C4.14398025 10.04446849 -2.77787328 5.82113489 -8.1875 0.0625 C-4.80475734 -1.06508089 -3.41971777 -0.75500262 0 0 Z " fill="#C3B18D" transform="translate(305.1875,213.9375)"/>
<path d="M0 0 C2.38549673 3.5782451 3.52399322 7.15959141 4.90234375 11.2109375 C5.92980457 14.06209453 5.92980457 14.06209453 7.6484375 16.67578125 C9 19 9 19 8.6875 21.8125 C8.460625 22.534375 8.23375 23.25625 8 24 C4.96610123 22.68870243 2.40430476 21.28861375 0 19 C-0.99709262 15.68643702 -0.76548432 12.61071612 -0.5 9.1875 C-0.46390625 8.30384766 -0.4278125 7.42019531 -0.390625 6.50976562 C-0.29670953 4.33797028 -0.15321507 2.16841885 0 0 Z " fill="#B3A984" transform="translate(283,178)"/>
<path d="M0 0 C1.98 0 3.96 0 6 0 C6.90238747 2.70716242 7.11851302 4.23776768 7.09765625 7.01171875 C7.09443359 7.76904297 7.09121094 8.52636719 7.08789062 9.30664062 C7.07951172 10.09232422 7.07113281 10.87800781 7.0625 11.6875 C7.05798828 12.48478516 7.05347656 13.28207031 7.04882812 14.10351562 C7.0370585 16.06904257 7.01912348 18.03453085 7 20 C6.34 20.33 5.68 20.66 5 21 C4.93941406 20.02417969 4.87882813 19.04835938 4.81640625 18.04296875 C4.73261719 16.77066406 4.64882812 15.49835938 4.5625 14.1875 C4.48128906 12.92292969 4.40007812 11.65835937 4.31640625 10.35546875 C4.12815453 7.00818107 4.12815453 7.00818107 3 4 C2.34 8.29 1.68 12.58 1 17 C0.67 17 0.34 17 0 17 C0 11.39 0 5.78 0 0 Z " fill="#7798A6" transform="translate(205,361)"/>
<path d="M0 0 C0.33 0 0.66 0 1 0 C1.33 11.22 1.66 22.44 2 34 C3.32 32.68 4.64 31.36 6 30 C6.66 30.33 7.32 30.66 8 31 C5.69 35.95 3.38 40.9 1 46 C0.67 46 0.34 46 0 46 C0 30.82 0 15.64 0 0 Z " fill="#1C445D" transform="translate(203,174)"/>
<path d="M0 0 C0.33 0.99 0.66 1.98 1 3 C1.66 3 2.32 3 3 3 C3.33 2.01 3.66 1.02 4 0 C4.66 0 5.32 0 6 0 C5.65173073 8.30622213 5.65173073 8.30622213 3.0625 11.0625 C1 12 1 12 -1 12 C-1.11214844 12.71542969 -1.22429687 13.43085938 -1.33984375 14.16796875 C-2.04456005 17.19115998 -3.13287798 19.56322688 -4.5625 22.3125 C-5.01753906 23.19550781 -5.47257812 24.07851562 -5.94140625 24.98828125 C-6.29074219 25.65214844 -6.64007813 26.31601563 -7 27 C-7.66 27 -8.32 27 -9 27 C-7.65729071 23.53133433 -6.13470362 20.21418118 -4.5 16.875 C-1.95415086 11.35523859 -0.77814945 6.00452635 0 0 Z " fill="#AEA782" transform="translate(394,173)"/>
<path d="M0 0 C0.33 0.66 0.66 1.32 1 2 C-0.04109483 4.56269497 -1.02610343 6.02610343 -3 8 C-2.67 8.66 -2.34 9.32 -2 10 C-2.99 10 -3.98 10 -5 10 C-5.33 10.66 -5.66 11.32 -6 12 C-6.66 11.01 -7.32 10.02 -8 9 C-8.66 10.32 -9.32 11.64 -10 13 C-11.32 13 -12.64 13 -14 13 C-14.33 14.98 -14.66 16.96 -15 19 C-15.66 19 -16.32 19 -17 19 C-17 17.68 -17 16.36 -17 15 C-18.32 14.67 -19.64 14.34 -21 14 C-19.85724609 13.48953125 -19.85724609 13.48953125 -18.69140625 12.96875 C-11.39607976 9.5442272 -5.71089319 5.68205029 0 0 Z " fill="#C5B28B" transform="translate(314,285)"/>
<path d="M0 0 C3.6946276 3.6946276 3.53697672 6.26323832 3.6875 11.1875 C3.72166016 11.93708984 3.75582031 12.68667969 3.79101562 13.45898438 C3.87334294 15.30546838 3.93835281 17.15270994 4 19 C5.65 19.33 7.3 19.66 9 20 C6 22 6 22 0 22 C0 14.74 0 7.48 0 0 Z " fill="#184F70" transform="translate(273,365)"/>
<path d="M0 0 C6.15234375 -0.09765625 6.15234375 -0.09765625 8 0 C8.33 0.33 8.66 0.66 9 1 C11.34987262 1.23527773 13.70556039 1.41386417 16.0625 1.5625 C17.35285156 1.64628906 18.64320313 1.73007813 19.97265625 1.81640625 C21.47119141 1.90728516 21.47119141 1.90728516 23 2 C22.67 2.99 22.34 3.98 22 5 C4.66393443 5.33196721 4.66393443 5.33196721 0 3 C0 2.01 0 1.02 0 0 Z " fill="#BFAC7B" transform="translate(323,223)"/>
<path d="M0 0 C0.99 0.33 1.98 0.66 3 1 C3 3.64 3 6.28 3 9 C2.01 8.67 1.02 8.34 0 8 C0 13.61 0 19.22 0 25 C5.61 25 11.22 25 17 25 C17.33 24.34 17.66 23.68 18 23 C18 23.99 18 24.98 18 26 C11.73 26 5.46 26 -1 26 C-1.0268245 21.85412418 -1.04675315 17.70841962 -1.0625 13.5625 C-1.07087891 12.37849609 -1.07925781 11.19449219 -1.08789062 9.97460938 C-1.09111328 8.84990234 -1.09433594 7.72519531 -1.09765625 6.56640625 C-1.10289307 5.52427979 -1.10812988 4.48215332 -1.11352539 3.40844727 C-1 1 -1 1 0 0 Z " fill="#1C4B69" transform="translate(315,362)"/>
<path d="M0 0 C1.65 0 3.3 0 5 0 C4.01 0.66 3.02 1.32 2 2 C1.4055939 4.13076382 1.4055939 4.13076382 1.26171875 6.62109375 C1.16689209 7.55219971 1.07206543 8.48330566 0.97436523 9.44262695 C0.87969971 10.43093506 0.78503418 11.41924316 0.6875 12.4375 C-0.28484847 20.98684113 -1.43004559 28.12676935 -7 35 C-7.99 35.495 -7.99 35.495 -9 36 C-8.10402877 33.23742203 -7.20979488 30.49815125 -6.08203125 27.8203125 C-2.43286224 18.84419562 -1.30471956 9.53829074 0 0 Z " fill="#2C515F" transform="translate(341,238)"/>
<path d="M0 0 C0.66 0.33 1.32 0.66 2 1 C0 4 0 4 -3.0625 5.4375 C-6.14072697 6.66952961 -6.14072697 6.66952961 -6.875 9.1875 C-6.91625 9.785625 -6.9575 10.38375 -7 11 C-8.32 11.33 -9.64 11.66 -11 12 C-11 13.65 -11 15.3 -11 17 C-11.7425 16.95875 -12.485 16.9175 -13.25 16.875 C-16.08758952 17.00398134 -17.58773938 17.57051222 -20 19 C-15.44699285 10.92876006 -7.85889843 4.75670168 0 0 Z " fill="#ADA888" transform="translate(236,179)"/>
<path d="M0 0 C2.5 0.25 2.5 0.25 4.5 2.25 C4.8125 4.75 4.8125 4.75 4.5 7.25 C1.5 9.25 1.5 9.25 -1.125 8.9375 C-3.5 8.25 -3.5 8.25 -4.5 7.25 C-4.6875 4.8125 -4.6875 4.8125 -4.5 2.25 C-2.5 0.25 -2.5 0.25 0 0 Z " fill="#EAF5F9" transform="translate(333.5,148.75)"/>
<path d="M0 0 C0 0.33 0 0.66 0 1 C-1.98 1 -3.96 1 -6 1 C-6 0.34 -6 -0.32 -6 -1 C-6.99 -0.67 -7.98 -0.34 -9 0 C-11.33299825 0.03954234 -13.66708189 0.04401732 -16 0 C-16 0.66 -16 1.32 -16 2 C-14.35 2 -12.7 2 -11 2 C-11.33 2.66 -11.66 3.32 -12 4 C-13.175625 3.9690625 -13.175625 3.9690625 -14.375 3.9375 C-16.98114961 3.81315937 -16.98114961 3.81315937 -19 5 C-19.845625 5.144375 -20.69125 5.28875 -21.5625 5.4375 C-22.7690625 5.7159375 -22.7690625 5.7159375 -24 6 C-24.33 6.66 -24.66 7.32 -25 8 C-25.66 7.67 -26.32 7.34 -27 7 C-20.59765986 -1.73046382 -10.08564586 -5.37901113 0 0 Z " fill="#305665" transform="translate(348,146)"/>
<path d="M0 0 C1.79068573 2.6860286 2.66055791 4.6626589 3.625 7.6875 C3.88539063 8.49574219 4.14578125 9.30398438 4.4140625 10.13671875 C4.60742188 10.75160156 4.80078125 11.36648438 5 12 C4.34 12 3.68 12 3 12 C3 11.34 3 10.68 3 10 C2.34 10 1.68 10 1 10 C1.33 21.88 1.66 33.76 2 46 C1.34 46 0.68 46 0 46 C0 30.82 0 15.64 0 0 Z " fill="#1C455C" transform="translate(203,261)"/>
<path d="M0 0 C0.33 0 0.66 0 1 0 C0.98259766 0.90492188 0.98259766 0.90492188 0.96484375 1.828125 C0.95582031 2.62734375 0.94679688 3.4265625 0.9375 4.25 C0.92589844 5.03890625 0.91429687 5.8278125 0.90234375 6.640625 C0.99630137 8.91064121 1.44304097 10.80929449 2 13 C1.5625 15.25 1.5625 15.25 1 17 C0.34 17 -0.32 17 -1 17 C-1 17.66 -1 18.32 -1 19 C-2.65 19 -4.3 19 -6 19 C-5.72736328 18.19949219 -5.72736328 18.19949219 -5.44921875 17.3828125 C-3.5063945 11.62408217 -1.71615568 5.83006078 0 0 Z " fill="#CAB990" transform="translate(332,252)"/>
<path d="M0 0 C0.33 0 0.66 0 1 0 C1.08745946 3.3956697 1.14054444 6.79104773 1.1875 10.1875 C1.21263672 11.14720703 1.23777344 12.10691406 1.26367188 13.09570312 C1.35709154 22.09513128 1.35709154 22.09513128 -2 26 C-5.31371 28.20914 -6.3446021 28.22481553 -10.1875 28.125 C-11.08855469 28.10695313 -11.98960937 28.08890625 -12.91796875 28.0703125 C-13.60503906 28.04710937 -14.29210937 28.02390625 -15 28 C-15 27.67 -15 27.34 -15 27 C-12.36 27 -9.72 27 -7 27 C-7 26.01 -7 25.02 -7 24 C-7.66 23.67 -8.32 23.34 -9 23 C-7.68 22.01 -6.36 21.02 -5 20 C-5.33 21.65 -5.66 23.3 -6 25 C-2.75150023 23.27773504 -2.75150023 23.27773504 -2 20 C-1.34 20 -0.68 20 0 20 C0 13.4 0 6.8 0 0 Z " fill="#5C7C8E" transform="translate(252,361)"/>
<path d="M0 0 C5.75 1.75 5.75 1.75 8 4 C8.66 3.34 9.32 2.68 10 2 C9.42415568 4.38564077 8.77772405 6.66682784 8 9 C8.99 9 9.98 9 11 9 C11 9.99 11 10.98 11 12 C11.99 12.33 12.98 12.66 14 13 C13.67 14.32 13.34 15.64 13 17 C11.38705197 15.29929308 9.78493214 13.59018444 8.1875 11.875 C7.29417969 10.92367187 6.40085937 9.97234375 5.48046875 8.9921875 C3.08749102 6.10554035 1.5231105 3.41055309 0 0 Z " fill="#C6B692" transform="translate(283,197)"/>
<path d="M0 0 C2.10353495 -0.0810206 4.20795952 -0.13919907 6.3125 -0.1875 C7.48425781 -0.22230469 8.65601563 -0.25710937 9.86328125 -0.29296875 C13 0 13 0 14.91796875 1.38671875 C16 3 16 3 16 5 C10.22192976 5.2358396 5.48675196 4.86783046 0 3 C0 2.01 0 1.02 0 0 Z " fill="#BFAA7B" transform="translate(337,106)"/>
<path d="M0 0 C1.32 0 2.64 0 4 0 C4.66 0.99 5.32 1.98 6 3 C8.28714826 3.65186296 8.28714826 3.65186296 10.875 3.9375 C15.09661569 4.65127028 17.3698936 5.41349127 20 9 C19 10 19 10 16.5 10.4375 C9.91131311 9.61391414 4.32940177 4.89410635 0 0 Z " fill="#A7A68C" transform="translate(224,293)"/>
<path d="M0 0 C-1.23416987 6.82423338 -2.8915995 13.39367844 -5 20 C-5.33 20 -5.66 20 -6 20 C-6.98778137 13.60611787 -7.71647535 7.0843504 -5 1 C-2 0 -2 0 0 0 Z " fill="#C3AC79" transform="translate(289,136)"/>
<path d="M0 0 C1.32 0.33 2.64 0.66 4 1 C4 2.32 4 3.64 4 5 C3.34 5 2.68 5 2 5 C2 5.66 2 6.32 2 7 C0.68 6.67 -0.64 6.34 -2 6 C-1.67 7.32 -1.34 8.64 -1 10 C-3.97 9.67 -6.94 9.34 -10 9 C-9.443125 8.5875 -8.88625 8.175 -8.3125 7.75 C-3.49637995 4.46020559 -3.49637995 4.46020559 0 0 Z " fill="#2F5D76" transform="translate(289,378)"/>
<path d="M0 0 C-1.28965176 1.37562854 -2.62689293 2.70766393 -4 4 C-4.66 4 -5.32 4 -6 4 C-6 3.34 -6 2.68 -6 2 C-6.57105469 2.29777344 -7.14210938 2.59554687 -7.73046875 2.90234375 C-13.56874708 5.72602053 -19.5716899 7.31613722 -26 8 C-23.19197652 5.19197652 -19.78651473 4.26925447 -16.125 2.9375 C-15.40441406 2.66873047 -14.68382812 2.39996094 -13.94140625 2.12304688 C-4.37941625 -1.40766951 -4.37941625 -1.40766951 0 0 Z " fill="#A8A785" transform="translate(264,171)"/>
<path d="M0 0 C0 0.66 0 1.32 0 2 C-1.423125 2.37125 -1.423125 2.37125 -2.875 2.75 C-6.05852032 3.66239093 -6.05852032 3.66239093 -7.1875 5.9375 C-7.455625 6.618125 -7.72375 7.29875 -8 8 C-8.515625 8.433125 -9.03125 8.86625 -9.5625 9.3125 C-11.77817401 11.91350862 -11.6872065 14.6843889 -12 18 C-13.65 18 -15.3 18 -17 18 C-13.95792928 11.18576158 -8.52368115 0 0 0 Z " fill="#2A535F" transform="translate(305,125)"/>
<path d="M0 0 C0.66 0.33 1.32 0.66 2 1 C1.34 1.66 0.68 2.32 0 3 C0.32041397 5.60280568 0.32041397 5.60280568 1 8 C0.01 7.67 -0.98 7.34 -2 7 C-2.598125 7.78375 -3.19625 8.5675 -3.8125 9.375 C-6 12 -6 12 -9 14 C-9.66 14 -10.32 14 -11 14 C-9.57442379 10.82096506 -7.8226848 8.46341568 -5.5 5.875 C-4.8915625 5.19179687 -4.283125 4.50859375 -3.65625 3.8046875 C-2.46695076 2.50880012 -1.24373566 1.24373566 0 0 Z " fill="#CEBF9C" transform="translate(298,118)"/>
<path d="M0 0 C1 3 1 3 -0.21484375 5.48046875 C-0.78332031 6.37378906 -1.35179687 7.26710938 -1.9375 8.1875 C-2.50339844 9.08855469 -3.06929688 9.98960937 -3.65234375 10.91796875 C-4.09707031 11.60503906 -4.54179687 12.29210937 -5 13 C-6.94158017 9.48375245 -7.18311068 7.0284349 -7 3 C-6.01 2.67 -5.02 2.34 -4 2 C-3.34 2.33 -2.68 2.66 -2 3 C-2 2.34 -2 1.68 -2 1 C-1.34 0.67 -0.68 0.34 0 0 Z " fill="#B4AA80" transform="translate(333,268)"/>
<path d="M0 0 C3.96 0 7.92 0 12 0 C12 1.32 12 2.64 12 4 C8.04 4 4.08 4 0 4 C0 2.68 0 1.36 0 0 Z " fill="#1B4F69" transform="translate(318,372)"/>
<path d="M0 0 C0 0.33 0 0.66 0 1 C-1.01578125 1.07476562 -2.0315625 1.14953125 -3.078125 1.2265625 C-11.59484921 1.99250723 -18.17887874 3.45064211 -25.7421875 7.7578125 C-28 9 -28 9 -30 9 C-30 8.01 -30 7.02 -30 6 C-19.63125303 1.05829932 -11.53301735 -0.88338005 0 0 Z " fill="#2C535C" transform="translate(344,127)"/>
<path d="M0 0 C0.66 0.33 1.32 0.66 2 1 C1.67 2.65 1.34 4.3 1 6 C-2.13349732 7.04449911 -2.98968256 6.93423645 -6 6 C-6 6.66 -6 7.32 -6 8 C-3.36 8.33 -0.72 8.66 2 9 C2 9.33 2 9.66 2 10 C0.56344146 10.08131463 -0.8744483 10.13933559 -2.3125 10.1875 C-3.51326172 10.23970703 -3.51326172 10.23970703 -4.73828125 10.29296875 C-7.47851584 9.93801608 -8.29171079 9.10633718 -10 7 C-9.34 6.01 -8.68 5.02 -8 4 C-4.375 3.8125 -4.375 3.8125 -1 4 C-0.67 2.68 -0.34 1.36 0 0 Z " fill="#5E7B8E" transform="translate(205,379)"/>
<path d="M0 0 C0.66 0 1.32 0 2 0 C2.66 2.64 3.32 5.28 4 8 C4.99 6.68 5.98 5.36 7 4 C7 8.29 7 12.58 7 17 C6.34 17.33 5.68 17.66 5 18 C4.16112944 15.56427941 3.32873471 13.12666783 2.5 10.6875 C2.14228516 9.65206055 2.14228516 9.65206055 1.77734375 8.59570312 C0.76791737 5.61068511 0 3.17341086 0 0 Z " fill="#C8BA9A" transform="translate(277,178)"/>
<path d="M0 0 C0.66 0 1.32 0 2 0 C4.29648649 2.5614657 5 3.47967572 5 7 C5.66 7 6.32 7 7 7 C7.33 8.65 7.66 10.3 8 12 C8.66 11.67 9.32 11.34 10 11 C9.67 14.3 9.34 17.6 9 21 C7.35677313 17.71354626 5.90270991 14.45380781 4.5 11.0625 C4.0771875 10.04285156 3.654375 9.02320313 3.21875 7.97265625 C2.13144726 5.32061335 1.0594269 2.6632815 0 0 Z " fill="#AAA78B" transform="translate(386,137)"/>
<path d="M0 0 C0.640625 1.8359375 0.640625 1.8359375 1 4 C-1.46026571 6.87030999 -3.85489214 8.90326143 -7 11 C-9.6875 11.125 -9.6875 11.125 -12 11 C-8.22975157 7.07265789 -4.11529949 3.55593839 0 0 Z " fill="#245162" transform="translate(321,288)"/>
<path d="M0 0 C-1.57096721 5.02709507 -4.61993049 9.02866469 -8 13 C-8.33 13 -8.66 13 -9 13 C-9 11.35 -9 9.7 -9 8 C-8.01 8 -7.02 8 -6 8 C-6.33 6.02 -6.66 4.04 -7 2 C-4.35261084 0.5393715 -3.10551666 0 0 0 Z " fill="#C7B897" transform="translate(395,195)"/>
<path d="M0 0 C7.48291572 6.15034169 7.48291572 6.15034169 10 10 C6.66666667 9.33333333 3.33333333 8.66666667 0 8 C-0.79953138 4.71303767 -1.09658936 3.28976808 0 0 Z " fill="#CBBFA0" transform="translate(220,280)"/>
<path d="M0 0 C5.61 0.33 11.22 0.66 17 1 C17 1.33 17 1.66 17 2 C20.96 2.33 24.92 2.66 29 3 C29 3.33 29 3.66 29 4 C18.84823738 4.32476018 9.78690805 4.16801648 0 1 C0 0.67 0 0.34 0 0 Z " fill="#D2C5AA" transform="translate(318,226)"/>
<path d="M0 0 C0.33 0 0.66 0 1 0 C1.36258758 5.09636993 1.54014017 8.90042893 -0.75 13.5625 C-2.94390056 15.9392256 -3.82865008 16.77347501 -7 17 C-7.33 16.01 -7.66 15.02 -8 14 C-6.68 14.33 -5.36 14.66 -4 15 C-4 14.34 -4 13.68 -4 13 C-3.34 13 -2.68 13 -2 13 C-2 11.68 -2 10.36 -2 9 C-2.99 8.67 -3.98 8.34 -5 8 C-5 6.35 -5 4.7 -5 3 C-4.731875 3.639375 -4.46375 4.27875 -4.1875 4.9375 C-3.11332248 7.33131686 -3.11332248 7.33131686 0 8 C0 5.36 0 2.72 0 0 Z " fill="#52788C" transform="translate(295,370)"/>
<path d="M0 0 C0.33 0.99 0.66 1.98 1 3 C-0.62887879 4.72759871 -2.27289797 6.37397519 -4 8 C-4.74443359 8.71542969 -4.74443359 8.71542969 -5.50390625 9.4453125 C-10.64639822 13.78235392 -15.49587879 13.52926845 -22 13 C-22 12.67 -22 12.34 -22 12 C-20.91332031 11.85304687 -20.91332031 11.85304687 -19.8046875 11.703125 C-10.58650099 10.27737882 -5.66207865 7.32739591 0 0 Z " fill="#A5A48A" transform="translate(358,177)"/>
<path d="M0 0 C2.17809362 3.26714042 3.89165864 6.6750176 5.625 10.1875 C5.94984375 10.84169922 6.2746875 11.49589844 6.609375 12.16992188 C7.4080654 13.77904812 8.20427649 15.38940455 9 17 C8.34 17.33 7.68 17.66 7 18 C6.67 16.35 6.34 14.7 6 13 C4.35 13.33 2.7 13.66 1 14 C1 11 1 11 3 8 C2.34 8 1.68 8 1 8 C0.67 5.36 0.34 2.72 0 0 Z " fill="#C8BB9A" transform="translate(211,263)"/>
<path d="M0 0 C1.25308709 0.91244206 2.50232026 1.83017771 3.75 2.75 C4.44609375 3.26046875 5.1421875 3.7709375 5.859375 4.296875 C8 6 8 6 12 10 C8.04 9.67 4.08 9.34 0 9 C0.185625 8.071875 0.37125 7.14375 0.5625 6.1875 C1.24123881 2.98656229 1.24123881 2.98656229 0 0 Z " fill="#AFAB88" transform="translate(297,205)"/>
<path d="M0 0 C0 0.33 0 0.66 0 1 C-2.31 1.33 -4.62 1.66 -7 2 C-7 2.66 -7 3.32 -7 4 C-7.73605469 3.98839844 -8.47210938 3.97679687 -9.23046875 3.96484375 C-10.20628906 3.95582031 -11.18210937 3.94679687 -12.1875 3.9375 C-13.15042969 3.92589844 -14.11335938 3.91429687 -15.10546875 3.90234375 C-17.85576513 3.99513378 -20.32479591 4.37888315 -23 5 C-16.62341231 -0.84520539 -8.0934506 -0.267798 0 0 Z " fill="#A8A585" transform="translate(344,128)"/>
<path d="M0 0 C0 0.66 0 1.32 0 2 C1.66611905 2.042721 3.33382885 2.04063832 5 2 C5.33 1.67 5.66 1.34 6 1 C8.67058851 0.85884839 11.32432238 0.95752893 14 1 C11.18570237 3.81429763 9.08290757 3.94935508 5.16015625 4.1328125 C4.13792969 4.13023437 3.11570312 4.12765625 2.0625 4.125 C1.04285156 4.12757813 0.02320313 4.13015625 -1.02734375 4.1328125 C-3.79588725 4.00911936 -6.30539535 3.62526738 -9 3 C-9 2.67 -9 2.34 -9 2 C-2.25 0 -2.25 0 0 0 Z " fill="#A8A686" transform="translate(336,202)"/>
<path d="M0 0 C4.58716587 4.44381694 8.78762713 9.20228499 13 14 C10 15 10 15 8 14.5 C5.02865488 12.27149116 4.34955363 9.40322219 3 6 C2.01755155 4.65368175 1.02323436 3.31558703 0 2 C0 1.34 0 0.68 0 0 Z " fill="#2E515C" transform="translate(212,280)"/>
<path d="M0 0 C2.1640625 0.99609375 2.1640625 0.99609375 4.625 2.4375 C5.85089844 3.14712891 5.85089844 3.14712891 7.1015625 3.87109375 C7.72804687 4.24363281 8.35453125 4.61617188 9 5 C9 6.32 9 7.64 9 9 C6.36 8.34 3.72 7.68 1 7 C1.33 5.35 1.66 3.7 2 2 C0.68 1.67 -0.64 1.34 -2 1 C-1.34 0.67 -0.68 0.34 0 0 Z " fill="#C7B595" transform="translate(230,290)"/>
<path d="M0 0 C-1.47797262 3.67056937 -3.47615477 5.41085783 -6.625 7.75 C-7.44226563 8.36359375 -8.25953125 8.9771875 -9.1015625 9.609375 C-9.72804688 10.06828125 -10.35453125 10.5271875 -11 11 C-11.33 10.34 -11.66 9.68 -12 9 C-11.34 9 -10.68 9 -10 9 C-9.87625 8.38125 -9.7525 7.7625 -9.625 7.125 C-8.45724043 3.15461748 -4.15529547 0 0 0 Z " fill="#C6BC9B" transform="translate(386,208)"/>
<path d="M0 0 C0.66 0.33 1.32 0.66 2 1 C-1.465 8.425 -1.465 8.425 -5 16 C-5.33 16 -5.66 16 -6 16 C-5.85831863 14.56208484 -5.71148957 13.1246763 -5.5625 11.6875 C-5.48128906 10.88699219 -5.40007812 10.08648437 -5.31640625 9.26171875 C-4.70156877 4.86676936 -3.17128391 2.96668494 0 0 Z " fill="#2C515D" transform="translate(209,204)"/>
<path d="M0 0 C3.5610865 1.48845413 5.6420874 3.5000687 8.1875 6.375 C8.88230469 7.14585937 9.57710938 7.91671875 10.29296875 8.7109375 C11.93496338 10.91278842 12.59001948 12.31982886 13 15 C10.66817405 13.44544936 9.20888245 12.44387521 8 9.875 C7.15723303 7.78648121 7.15723303 7.78648121 4.875 7.25 C4.25625 7.1675 3.6375 7.085 3 7 C3.33 6.01 3.66 5.02 4 4 C3.34 4 2.68 4 2 4 C2 3.34 2 2.68 2 2 C1.34 2 0.68 2 0 2 C0 1.34 0 0.68 0 0 Z " fill="#AFAB8B" transform="translate(360,135)"/>
<path d="M0 0 C0.33 1.32 0.66 2.64 1 4 C-0.98 4.99 -0.98 4.99 -3 6 C-3 5.34 -3 4.68 -3 4 C-3.99 4.66 -4.98 5.32 -6 6 C-8.1875 5.625 -8.1875 5.625 -10 5 C-8.90241493 4.15801693 -7.79664683 3.32669329 -6.6875 2.5 C-6.07261719 2.0359375 -5.45773437 1.571875 -4.82421875 1.09375 C-3 0 -3 0 0 0 Z " fill="#C8B792" transform="translate(310,112)"/>
<path d="M0 0 C1.0625 1.875 1.0625 1.875 2 4 C1 6 1 6 -0.875 7.3125 C-3.17843059 8.93122963 -3.17843059 8.93122963 -4.5625 11.6875 C-5.2740625 12.8321875 -5.2740625 12.8321875 -6 14 C-6.99 14 -7.98 14 -9 14 C-7.60701445 10.99868813 -5.96044932 8.48942591 -3.9375 5.875 C-1.76773805 3.06372737 -1.76773805 3.06372737 0 0 Z " fill="#2A5462" transform="translate(331,274)"/>
<path d="M0 0 C0.66 0.33 1.32 0.66 2 1 C1.43518386 4.95371299 0.28003407 7.71675094 -2 11 C-2.99 11.495 -2.99 11.495 -4 12 C-3.5317879 7.22423661 -2.75668002 3.95523655 0 0 Z " fill="#3E6579" transform="translate(105,339)"/>
<path d="M0 0 C0.33 0.99 0.66 1.98 1 3 C-0.0625 4.5 -0.0625 4.5 -2 6 C-8.13846154 6.43076923 -8.13846154 6.43076923 -11 5 C-11 4.34 -11 3.68 -11 3 C-10.113125 3.020625 -9.22625 3.04125 -8.3125 3.0625 C-5.37830369 3.00713781 -2.84506304 2.6694266 0 2 C0 1.34 0 0.68 0 0 Z " fill="#2B5A74" transform="translate(210,382)"/>
<path d="M0 0 C0.33 0.66 0.66 1.32 1 2 C0.0625 4.5 0.0625 4.5 -2 7 C-4.74783559 8.20568296 -6.96785018 8.56683574 -10 9 C-10.66 8.34 -11.32 7.68 -12 7 C-11.30132812 6.66226562 -10.60265625 6.32453125 -9.8828125 5.9765625 C-8.97273437 5.53054688 -8.06265625 5.08453125 -7.125 4.625 C-6.22007812 4.18414062 -5.31515625 3.74328125 -4.3828125 3.2890625 C-1.90465528 2.09497301 -1.90465528 2.09497301 0 0 Z " fill="#456F86" transform="translate(157,341)"/>
<path d="M0 0 C0 1.32 0 2.64 0 4 C-2.64 4.33 -5.28 4.66 -8 5 C-7.67 4.34 -7.34 3.68 -7 3 C-7.66 2.34 -8.32 1.68 -9 1 C-5.8035914 -0.06546953 -3.34252724 -0.07427838 0 0 Z " fill="#C3B388" transform="translate(297,300)"/>
<path d="M0 0 C0.33 0.99 0.66 1.98 1 3 C0.67 3.66 0.34 4.32 0 5 C-0.66 5 -1.32 5 -2 5 C-2.226875 5.639375 -2.45375 6.27875 -2.6875 6.9375 C-4.48565826 11.13320261 -6.73904021 15.03900556 -9 19 C-9.33 18.34 -9.66 17.68 -10 17 C-8.80418776 14.42531291 -7.55705604 11.97956847 -6.1875 9.5 C-5.81818359 8.81035156 -5.44886719 8.12070313 -5.06835938 7.41015625 C-3.5687584 4.64787509 -2.23414629 2.23414629 0 0 Z " fill="#A5A78C" transform="translate(215,198)"/>
<path d="M0 0 C1.58468677 0.45363171 3.16769924 0.91311452 4.75 1.375 C5.63171875 1.63023437 6.5134375 1.88546875 7.421875 2.1484375 C9.76080572 2.9209934 11.83442562 3.83625676 14 5 C10.46126303 5.07077474 7.18316823 5.03110404 3.6875 4.4375 C1.03806674 3.73716842 1.03806674 3.73716842 -1 5 C-1.66 4.67 -2.32 4.34 -3 4 C-3 3.34 -3 2.68 -3 2 C-2.34 2 -1.68 2 -1 2 C-0.67 1.34 -0.34 0.68 0 0 Z " fill="#B4AA84" transform="translate(326,186)"/>
<path d="M0 0 C14.46190512 -0.39145006 14.46190512 -0.39145006 20 2 C20.33 2.99 20.66 3.98 21 5 C19.783125 4.505 18.56625 4.01 17.3125 3.5 C11.2661255 1.44268727 5.31264087 1.73656676 -1 2 C-0.67 1.34 -0.34 0.68 0 0 Z " fill="#A6A686" transform="translate(331,143)"/>
<path d="M0 0 C1.79068573 2.6860286 2.66055791 4.6626589 3.625 7.6875 C3.88539063 8.49574219 4.14578125 9.30398438 4.4140625 10.13671875 C4.60742188 10.75160156 4.80078125 11.36648438 5 12 C4.34 12 3.68 12 3 12 C3 11.34 3 10.68 3 10 C2.34 10 1.68 10 1 10 C0.67 11.32 0.34 12.64 0 14 C0 9.38 0 4.76 0 0 Z " fill="#31515B" transform="translate(203,261)"/>
<path d="M0 0 C4.3177458 0.50797009 8.03302114 1.19682779 12 3 C11.34 3.66 10.68 4.32 10 5 C7.17042171 4.63723355 4.70915709 3.90305236 2 3 C1.01 3 0.02 3 -1 3 C-0.67 2.01 -0.34 1.02 0 0 Z " fill="#BAAC7B" transform="translate(309,218)"/>
<path d="M0 0 C0.33 0 0.66 0 1 0 C0.58997722 11.70615034 0.58997722 11.70615034 -4 16 C-3.47606294 10.13190493 -2.23891142 5.45126259 0 0 Z " fill="#33575F" transform="translate(287,144)"/>
<path d="M0 0 C5.13599453 4.99332802 9.04350162 8.98921415 11 16 C8.02296982 13.22828224 6.05776133 10.48924748 4 7 C3.46375 6.484375 2.9275 5.96875 2.375 5.4375 C0.71515152 3.70220387 0.40263517 2.33528396 0 0 Z " fill="#32525B" transform="translate(378,128)"/>
<path d="M0 0 C0.99 0.33 1.98 0.66 3 1 C3.8125 2.875 3.8125 2.875 4 5 C3.01 6.485 3.01 6.485 2 8 C1.01 7.67 0.02 7.34 -1 7 C-1.99 7 -2.98 7 -4 7 C-2.68 4.69 -1.36 2.38 0 0 Z " fill="#35627A" transform="translate(162,334)"/>
<path d="M0 0 C0.33 0 0.66 0 1 0 C1.33 3.3 1.66 6.6 2 10 C1.67 9.34 1.34 8.68 1 8 C-0.98 8.33 -2.96 8.66 -5 9 C-3.35 6.03 -1.7 3.06 0 0 Z " fill="#CBBC93" transform="translate(325,271)"/>
<path d="M0 0 C1.93817313 1.12383992 3.87551518 2.24911321 5.8125 3.375 C6.89144531 4.00148437 7.97039062 4.62796875 9.08203125 5.2734375 C11.08831093 6.46055346 13.06034059 7.70689373 15 9 C11.31733897 8.40049704 7.65456815 7.75241109 4 7 C3.896875 6.360625 3.79375 5.72125 3.6875 5.0625 C3.460625 4.381875 3.23375 3.70125 3 3 C2.01 2.67 1.02 2.34 0 2 C0 1.34 0 0.68 0 0 Z " fill="#325560" transform="translate(312,196)"/>
<path d="M0 0 C0.99 0.33 1.98 0.66 3 1 C0.60667452 4.9888758 -1.68029327 5.62137019 -6 7 C-6.66 7.99 -7.32 8.98 -8 10 C-8.33 9.01 -8.66 8.02 -9 7 C-7.57277341 5.8001722 -6.13284224 4.6154424 -4.6875 3.4375 C-3.88699219 2.77621094 -3.08648437 2.11492187 -2.26171875 1.43359375 C-1.51535156 0.96050781 -0.76898438 0.48742187 0 0 Z " fill="#497285" transform="translate(220,158)"/>
<path d="M0 0 C-2.9905167 3.33557632 -5.93184627 5.15083921 -10 7 C-9.67 5.02 -9.34 3.04 -9 1 C-5.8035914 -0.06546953 -3.34252724 -0.07427838 0 0 Z " fill="#235061" transform="translate(374,210)"/>
<path d="M0 0 C2.0625 0.4375 2.0625 0.4375 4 1 C2.60667426 4.36720387 1.0210714 5.9859524 -2 8 C-2.625 6.1875 -2.625 6.1875 -3 4 C-1 1 -1 1 0 0 Z " fill="#275365" transform="translate(308,136)"/>
<path d="M0 0 C1.32 0 2.64 0 4 0 C3.67 1.32 3.34 2.64 3 4 C2.67 3.67 2.34 3.34 2 3 C1.67 8.28 1.34 13.56 1 19 C0.67 19 0.34 19 0 19 C0 12.73 0 6.46 0 0 Z " fill="#1F4860" transform="translate(248,361)"/>
<path d="M0 0 C-6.54158399 3.65111665 -12.63879629 3.29887594 -20 3 C-20 2.67 -20 2.34 -20 2 C-16.7 1.67 -13.4 1.34 -10 1 C-10 0.67 -10 0.34 -10 0 C-6.33694766 -0.74926071 -3.57644848 -1.2380014 0 0 Z " fill="#A9A487" transform="translate(354,222)"/>
<path d="M0 0 C6.36363636 -0.48951049 6.36363636 -0.48951049 9.4375 1.875 C11 4 11 4 11 6 C6.95743617 4.77782954 3.50711041 3.37245704 0 1 C0 0.67 0 0.34 0 0 Z " fill="#CBBC9E" transform="translate(306,220)"/>
<path d="M0 0 C0.66 0.33 1.32 0.66 2 1 C1.38125 1.2475 0.7625 1.495 0.125 1.75 C-2.15001528 2.82396211 -2.15001528 2.82396211 -3 5.0625 C-4 7 -4 7 -6.125 7.75 C-7.053125 7.87375 -7.053125 7.87375 -8 8 C-7.9375 6.25 -7.9375 6.25 -7 4 C-4.74876994 2.27481113 -2.59865097 1.23093993 0 0 Z " fill="#C2AB79" transform="translate(237,181)"/>
<path d="M0 0 C2.34914492 2.34914492 2.73140357 3.95679446 3.625 7.125 C3.88539063 8.03507813 4.14578125 8.94515625 4.4140625 9.8828125 C4.70410156 10.93082031 4.70410156 10.93082031 5 12 C2.5625 11.1875 2.5625 11.1875 0 10 C-0.33 9.01 -0.66 8.02 -1 7 C-0.34 7 0.32 7 1 7 C0.67 4.69 0.34 2.38 0 0 Z " fill="#CCBE9D" transform="translate(395,139)"/>
<path d="M0 0 C0.66 0 1.32 0 2 0 C2 0.66 2 1.32 2 2 C3.32 2.33 4.64 2.66 6 3 C6 4.32 6 5.64 6 7 C6.66 7 7.32 7 8 7 C8.66 8.65 9.32 10.3 10 12 C5.58380857 8.84557755 2.95753693 5.47855592 0 1 C0 0.67 0 0.34 0 0 Z " fill="#ABA88D" transform="translate(214,281)"/>
<path d="M0 0 C2 2 2 2 2 6 C2.66 6 3.32 6 4 6 C3.67 7.32 3.34 8.64 3 10 C-0.91941982 6.69298952 -0.91941982 6.69298952 -1.3125 3.3125 C-1 1 -1 1 0 0 Z " fill="#BDAA7E" transform="translate(210,265)"/>
<path d="M0 0 C0.66 0.33 1.32 0.66 2 1 C1.38125 1.2475 0.7625 1.495 0.125 1.75 C-2.14890939 2.80802664 -2.14890939 2.80802664 -2.875 5 C-4 7 -4 7 -7.125 8.25 C-8.07375 8.4975 -9.0225 8.745 -10 9 C-10 8.01 -10 7.02 -10 6 C-9.36191406 5.65066406 -8.72382813 5.30132812 -8.06640625 4.94140625 C-7.24011719 4.48636719 -6.41382813 4.03132812 -5.5625 3.5625 C-4.73878906 3.11003906 -3.91507812 2.65757812 -3.06640625 2.19140625 C-1.07691202 1.16337603 -1.07691202 1.16337603 0 0 Z " fill="#A9A585" transform="translate(371,212)"/>
<path d="M0 0 C-3.96 3.465 -3.96 3.465 -8 7 C-8.66 5.68 -9.32 4.36 -10 3 C-3.66666667 -1.22222222 -3.66666667 -1.22222222 0 0 Z " fill="#CBC09F" transform="translate(236,188)"/>
<path d="M0 0 C0.33 0.99 0.66 1.98 1 3 C-1.3125 5.5 -1.3125 5.5 -4 8 C-4.99 8 -5.98 8 -7 8 C-5.50902342 4.2047869 -3.24299151 2.38957269 0 0 Z " fill="#44697E" transform="translate(210,166)"/>
<path d="M0 0 C2.31 0 4.62 0 7 0 C6.67 2.97 6.34 5.94 6 9 C3.37613513 5.93882432 3 5.26826873 3 1 C2.01 0.67 1.02 0.34 0 0 Z " fill="#678B9F" transform="translate(264,144)"/>
<path d="M0 0 C0 0.99 0 1.98 0 3 C-0.99 3 -1.98 3 -3 3 C-3 3.99 -3 4.98 -3 6 C-4 6 -5 6 -6 6 C-6.99 6.495 -6.99 6.495 -8 7 C-8.66 6.34 -9.32 5.68 -10 5 C-7.31217681 1.88778367 -4.19734673 0 0 0 Z " fill="#C3AB78" transform="translate(307,116)"/>
<path d="M0 0 C1.32 0 2.64 0 4 0 C4.33 0.99 4.66 1.98 5 3 C3.59554165 5.2636564 1.8032087 7.0208685 0 9 C-0.33 7.68 -0.66 6.36 -1 5 C-0.01 4.67 0.98 4.34 2 4 C0.68 3.34 -0.64 2.68 -2 2 C-1.34 1.34 -0.68 0.68 0 0 Z " fill="#B6A885" transform="translate(322,279)"/>
<path d="M0 0 C0.66 0 1.32 0 2 0 C2 0.99 2 1.98 2 3 C2.99 2.67 3.98 2.34 5 2 C5.33 4.31 5.66 6.62 6 9 C0.42857143 3.85714286 0.42857143 3.85714286 0 0 Z " fill="#25505F" transform="translate(289,192)"/>
<path d="M0 0 C0.99 0 1.98 0 3 0 C4.40907283 2.81814566 3.50872691 4.17277204 2.5625 7.125 C2.27503906 8.03507813 1.98757813 8.94515625 1.69140625 9.8828125 C1.46324219 10.58148438 1.23507812 11.28015625 1 12 C0.67 12 0.34 12 0 12 C-0.19477739 10.37585622 -0.38059458 8.75063577 -0.5625 7.125 C-0.66691406 6.22007812 -0.77132813 5.31515625 -0.87890625 4.3828125 C-1 2 -1 2 0 0 Z " fill="#B3AB87" transform="translate(283,144)"/>
<path d="M0 0 C1.32 0 2.64 0 4 0 C4.33 0.66 4.66 1.32 5 2 C6.64142963 3.0409066 8.30712215 4.04504326 10 5 C9.01 5.495 9.01 5.495 8 6 C5.8359375 5.22265625 5.8359375 5.22265625 3.375 4.0625 C2.55773437 3.68222656 1.74046875 3.30195313 0.8984375 2.91015625 C0.27195312 2.60980469 -0.35453125 2.30945313 -1 2 C-0.67 1.34 -0.34 0.68 0 0 Z " fill="#4A7286" transform="translate(103,362)"/>
<path d="M0 0 C1.32 0.66 2.64 1.32 4 2 C2.75823305 2.70226141 1.50614401 3.38629109 0.25 4.0625 C-0.79414063 4.63677734 -0.79414063 4.63677734 -1.859375 5.22265625 C-4.36140628 6.1312406 -5.5332355 5.88336837 -8 5 C-8 4.67 -8 4.34 -8 4 C-6.35 4 -4.7 4 -3 4 C-2.67 3.01 -2.34 2.02 -2 1 C-1.34 1.33 -0.68 1.66 0 2 C0 1.34 0 0.68 0 0 Z " fill="#4D768B" transform="translate(161,363)"/>
<path d="M0 0 C7.38461538 0.49230769 7.38461538 0.49230769 10.5 3.0625 C10.995 3.701875 11.49 4.34125 12 5 C10.68 5.33 9.36 5.66 8 6 C8 5.01 8 4.02 8 3 C7.05125 3.061875 6.1025 3.12375 5.125 3.1875 C4.09375 3.125625 3.0625 3.06375 2 3 C1.34 2.01 0.68 1.02 0 0 Z " fill="#BDAA7D" transform="translate(232,297)"/>
<path d="M0 0 C1.10336858 3.31010574 1.13531135 5.6813976 0 9 C-2.05078125 10.1484375 -2.05078125 10.1484375 -4 11 C-3.5247412 9.35303396 -3.04468109 7.70745272 -2.5625 6.0625 C-2.29566406 5.14597656 -2.02882813 4.22945312 -1.75390625 3.28515625 C-1 1 -1 1 0 0 Z " fill="#A7A484" transform="translate(305,146)"/>
<path d="M0 0 C0.33 0.66 0.66 1.32 1 2 C-0.21258505 5.23356015 -1.01284458 6.00856305 -4 8 C-5.32 7.67 -6.64 7.34 -8 7 C-5.36 4.69 -2.72 2.38 0 0 Z " fill="#D3C6A5" transform="translate(314,285)"/>
<path d="M0 0 C2.9156164 3.54039134 5.50127818 7.1626772 8 11 C7.01 11 6.02 11 5 11 C4.731875 10.195625 4.46375 9.39125 4.1875 8.5625 C3.795625 7.716875 3.40375 6.87125 3 6 C2.01 5.67 1.02 5.34 0 5 C0 3.35 0 1.7 0 0 Z " fill="#A8A889" transform="translate(317,174)"/>
<path d="M0 0 C-0.33 0.66 -0.66 1.32 -1 2 C-4.3 2 -7.6 2 -11 2 C-7.49890112 -1.50109888 -4.63591413 -1.15897853 0 0 Z " fill="#325963" transform="translate(332,113)"/>
<path d="M0 0 C3.24208567 0.35049575 4.61527704 0.56221181 6.8125 3.0625 C7.204375 3.701875 7.59625 4.34125 8 5 C3.77471908 5 2.95481492 4.74375671 0 2 C0 1.34 0 0.68 0 0 Z " fill="#3B667C" transform="translate(214,316)"/>
<path d="M0 0 C-0.33 2.31 -0.66 4.62 -1 7 C-1.66 7 -2.32 7 -3 7 C-3 5.68 -3 4.36 -3 3 C-4.32 2.67 -5.64 2.34 -7 2 C-2.25 0 -2.25 0 0 0 Z " fill="#CABB93" transform="translate(300,297)"/>
<path d="M0 0 C1.32 0 2.64 0 4 0 C4.33 1.98 4.66 3.96 5 6 C3.35 5.67 1.7 5.34 0 5 C0 3.35 0 1.7 0 0 Z " fill="#C8B897" transform="translate(264,170)"/>
<path d="M0 0 C1.98 0.66 3.96 1.32 6 2 C6 3.98 6 5.96 6 8 C3.33264727 5.51047079 1.44253657 3.36591866 0 0 Z " fill="#CBBDA0" transform="translate(283,197)"/>
<path d="M0 0 C2.125 0.9375 2.125 0.9375 4 2 C-2.75 6 -2.75 6 -5 6 C-5 5.34 -5 4.68 -5 4 C-4.34 4 -3.68 4 -3 4 C-2.67 3.01 -2.34 2.02 -2 1 C-1.34 0.67 -0.68 0.34 0 0 Z " fill="#CEC5A7" transform="translate(241,181)"/>
<path d="M0 0 C0.66 0.33 1.32 0.66 2 1 C1.54625 1.4125 1.0925 1.825 0.625 2.25 C-1.05950374 4.06408095 -1.99265971 5.75285627 -3 8 C-4.32 7.67 -5.64 7.34 -7 7 C-4.69 4.69 -2.38 2.38 0 0 Z " fill="#B0AA8C" transform="translate(314,136)"/>
<path d="M0 0 C0.66 0.33 1.32 0.66 2 1 C1.34 1.66 0.68 2.32 0 3 C0.32041397 5.60280568 0.32041397 5.60280568 1 8 C-0.32 8 -1.64 8 -3 8 C-3 4.42424104 -1.91159393 2.94704065 0 0 Z " fill="#CCB78E" transform="translate(298,118)"/>
<path d="M0 0 C0.66 0.33 1.32 0.66 2 1 C1.195625 1.61875 0.39125 2.2375 -0.4375 2.875 C-3.03874519 4.74164041 -3.03874519 4.74164041 -4 7 C-5.65 7 -7.3 7 -9 7 C-6.03716687 4.61327331 -3.05729491 2.2646629 0 0 Z " fill="#315561" transform="translate(312,117)"/>
<path d="M0 0 C1.32 0.33 2.64 0.66 4 1 C4 2.65 4 4.3 4 6 C2.68 5.67 1.36 5.34 0 5 C0 3.35 0 1.7 0 0 Z " fill="#164F6F" transform="translate(291,372)"/>
<path d="M0 0 C3.465 1.98 3.465 1.98 7 4 C3.8035914 5.06546953 1.34252724 5.07427838 -2 5 C-2 4.34 -2 3.68 -2 3 C-1.34 3 -0.68 3 0 3 C0 2.01 0 1.02 0 0 Z " fill="#255362" transform="translate(228,297)"/>
<path d="M0 0 C1.32 1.32 2.64 2.64 4 4 C0.25 6 0.25 6 -2 6 C-2.33 5.01 -2.66 4.02 -3 3 C-2.01 2.01 -1.02 1.02 0 0 Z " fill="#B4A884" transform="translate(293,200)"/>
<path d="M0 0 C0 0.66 0 1.32 0 2 C-3.50776784 3.60355101 -6.14354879 4.22036864 -10 4 C-7.18342017 0.590456 -4.32639749 0 0 0 Z " fill="#B9AB86" transform="translate(326,132)"/>
<path d="M0 0 C2.66666667 0 5.33333333 0 8 0 C7.1875 1.9375 7.1875 1.9375 6 4 C5.01 4.33 4.02 4.66 3 5 C2.01 3.35 1.02 1.7 0 0 Z " fill="#AFA783" transform="translate(380,129)"/>
<path d="M0 0 C0 0.99 0 1.98 0 3 C-2.64 3 -5.28 3 -8 3 C-5.53387212 -0.1151089 -3.89156016 -0.31553191 0 0 Z " fill="#1B4B65" transform="translate(245,385)"/>
<path d="M0 0 C-4.75 4 -4.75 4 -7 4 C-7.33 2.68 -7.66 1.36 -8 0 C-4.71303767 -0.79953138 -3.28976808 -1.09658936 0 0 Z " fill="#426E84" transform="translate(329,316)"/>
<path d="M0 0 C1.485 0.99 1.485 0.99 3 2 C3.1875 4.625 3.1875 4.625 3 7 C2.01 7.33 1.02 7.66 0 8 C-0.79953138 4.71303767 -1.09658936 3.28976808 0 0 Z " fill="#C4B592" transform="translate(220,280)"/>
<path d="M0 0 C0.66 0 1.32 0 2 0 C2 0.66 2 1.32 2 2 C3.65 2.33 5.3 2.66 7 3 C6.67 4.32 6.34 5.64 6 7 C1.125 3.375 1.125 3.375 0 0 Z " fill="#2D5864" transform="translate(295,201)"/>
<path d="M0 0 C1.65 0 3.3 0 5 0 C5.33 0.99 5.66 1.98 6 3 C4.68 3 3.36 3 2 3 C2 3.66 2 4.32 2 5 C1.34 4.67 0.68 4.34 0 4 C0 2.68 0 1.36 0 0 Z " fill="#BEAC7B" transform="translate(310,112)"/>
<path d="M0 0 C0.66 0.33 1.32 0.66 2 1 C1.67 2.65 1.34 4.3 1 6 C0.01 6.33 -0.98 6.66 -2 7 C-2.99 6.34 -3.98 5.68 -5 5 C-3.68 4.67 -2.36 4.34 -1 4 C-0.67 2.68 -0.34 1.36 0 0 Z " fill="#688DA4" transform="translate(205,379)"/>
<path d="M0 0 C-0.66 1.65 -1.32 3.3 -2 5 C-2.99 5 -3.98 5 -5 5 C-5 3.68 -5 2.36 -5 1 C-3 0 -3 0 0 0 Z " fill="#C2A979" transform="translate(378,211)"/>
<path d="M0 0 C0.33 1.32 0.66 2.64 1 4 C-0.65 5.32 -2.3 6.64 -4 8 C-4.66 7.67 -5.32 7.34 -6 7 C-4.02 4.69 -2.04 2.38 0 0 Z " fill="#A4A688" transform="translate(384,200)"/>
<path d="M0 0 C-1.36983503 3.16115776 -1.9890638 3.9927092 -5 6 C-5 4.35 -5 2.7 -5 1 C-3 0 -3 0 0 0 Z " fill="#295163" transform="translate(218,194)"/>
<path d="M0 0 C2.375 0.1875 2.375 0.1875 5 1 C6.3125 3.5625 6.3125 3.5625 7 6 C6.01 6.495 6.01 6.495 5 7 C3.35 4.69 1.7 2.38 0 0 Z " fill="#2A535E" transform="translate(365,138)"/>
<path d="M0 0 C0.66 0 1.32 0 2 0 C2 1.98 2 3.96 2 6 C1.01 6 0.02 6 -1 6 C-1.625 4.125 -1.625 4.125 -2 2 C-1.34 1.34 -0.68 0.68 0 0 Z " fill="#BFA97D" transform="translate(293,127)"/>
<path d="M0 0 C3.55780196 0.60990891 6.6828589 1.5783681 10 3 C10 3.66 10 4.32 10 5 C6.08788267 3.84414715 3.1254959 2.64465038 0 0 Z " fill="#587F91" transform="translate(221,322)"/>
<path d="M0 0 C1.98 0 3.96 0 6 0 C3.82575883 2.50037734 2.26954202 3.43628586 -1 4 C-0.67 2.68 -0.34 1.36 0 0 Z " fill="#C6B797" transform="translate(363,221)"/>
<path d="M0 0 C1.98 0 3.96 0 6 0 C3.37801226 2.15377564 1.35595828 3.40072174 -2 4 C-1.34 2.68 -0.68 1.36 0 0 Z " fill="#AFAA87" transform="translate(354,199)"/>
<path d="M0 0 C1.65 0 3.3 0 5 0 C3.02 2.31 1.04 4.62 -1 7 C-1.33 5.68 -1.66 4.36 -2 3 C-1.34 3 -0.68 3 0 3 C0 2.01 0 1.02 0 0 Z " fill="#B0AD8A" transform="translate(323,146)"/>
<path d="M0 0 C1.25541557 3.76624671 0.37061958 5.37188934 -1 9 C-2.1875 7.3125 -2.1875 7.3125 -3 5 C-1.625 2.25 -1.625 2.25 0 0 Z " fill="#CBBB99" transform="translate(284,135)"/>
</svg>
